<svg width="420" height="250" viewBox="0 0 420 250" fill="none" xmlns="http://www.w3.org/2000/svg">
  <rect width="420" height="250" rx="18" fill="#0d1117"/>
  <rect x="1" y="1" width="418" height="248" rx="17" stroke="#1f6feb" stroke-opacity=".35"/>
  <circle cx="60" cy="44" r="34" fill="#00d4ff" opacity=".1"/>
  <circle cx="350" cy="200" r="48" fill="#10b981" opacity=".1"/>

  <rect x="42" y="42" width="112" height="78" rx="10" fill="#111827" stroke="#26364f"/>
  <rect x="60" y="28" width="76" height="28" rx="8" fill="#1a1b4b"/>
  <text x="70" y="48" fill="#00d4ff" font-size="15" font-family="Arial, sans-serif" font-weight="700">UKH</text>
  <rect x="62" y="66" width="18" height="22" rx="3" fill="#00d4ff" opacity=".8"/>
  <rect x="92" y="66" width="18" height="22" rx="3" fill="#00d4ff" opacity=".45"/>
  <rect x="122" y="66" width="18" height="22" rx="3" fill="#00d4ff" opacity=".65"/>
  <rect x="84" y="98" width="28" height="22" rx="3" fill="#1f2937"/>

  <path d="M30 174H390" stroke="#29313f" stroke-width="24" stroke-linecap="round"/>
  <path d="M44 174H376" stroke="#00d4ff" stroke-width="2" stroke-dasharray="14 18" opacity=".7"/>

  <g>
    <animateTransform attributeName="transform" type="translate" values="-20 0; 165 0; 165 0; -20 0" dur="5s" repeatCount="indefinite"/>
    <rect x="62" y="141" width="82" height="36" rx="12" fill="#00d4ff"/>
    <path d="M77 141L91 120H119L134 141" fill="#0891b2"/>
    <rect x="94" y="126" width="20" height="12" rx="3" fill="#dffaff"/>
    <circle cx="82" cy="179" r="9" fill="#0d1117"/>
    <circle cx="126" cy="179" r="9" fill="#0d1117"/>
    <rect x="95" y="151" width="22" height="10" rx="3" fill="#0d1117" opacity=".65"/>
  </g>

  <g opacity=".95">
    <rect x="255" y="55" width="104" height="116" rx="14" fill="#111827" stroke="#26364f"/>
    <rect x="276" y="75" width="62" height="34" rx="8" fill="#1f2937"/>
    <path d="M276 126H338" stroke="#00d4ff" stroke-width="5" stroke-linecap="round">
      <animate attributeName="stroke-dasharray" values="10 60;40 20;10 60" dur="2.2s" repeatCount="indefinite"/>
    </path>
    <circle cx="307" cy="92" r="23" stroke="#10b981" stroke-width="4" opacity=".85">
      <animate attributeName="r" values="18;25;18" dur="2s" repeatCount="indefinite"/>
      <animate attributeName="opacity" values=".9;.25;.9" dur="2s" repeatCount="indefinite"/>
    </circle>
    <text x="277" y="153" fill="#c9d1d9" font-size="13" font-family="Arial, sans-serif">Plate lookup</text>
  </g>

  <text x="30" y="222" fill="#f8fafc" font-size="24" font-family="Arial, sans-serif" font-weight="700">UKH Garage</text>
  <text x="30" y="240" fill="#8b949e" font-size="13" font-family="Arial, sans-serif">Smart campus parking assistant</text>
</svg>
